G75*
%MOIN*%
%OFA0B0*%
%FSLAX25Y25*%
%IPPOS*%
%LPD*%
%AMOC8*
5,1,8,0,0,1.08239X$1,22.5*
%
%ADD10C,0.00000*%
%ADD11C,0.00600*%
%ADD12C,0.00500*%
%ADD13C,0.00200*%
D10*
X0015000Y0005000D02*
X0195000Y0005000D01*
X0190000Y0015000D02*
X0190002Y0015141D01*
X0190008Y0015282D01*
X0190018Y0015422D01*
X0190032Y0015562D01*
X0190050Y0015702D01*
X0190071Y0015841D01*
X0190097Y0015980D01*
X0190126Y0016118D01*
X0190160Y0016254D01*
X0190197Y0016390D01*
X0190238Y0016525D01*
X0190283Y0016659D01*
X0190332Y0016791D01*
X0190384Y0016922D01*
X0190440Y0017051D01*
X0190500Y0017178D01*
X0190563Y0017304D01*
X0190629Y0017428D01*
X0190700Y0017551D01*
X0190773Y0017671D01*
X0190850Y0017789D01*
X0190930Y0017905D01*
X0191014Y0018018D01*
X0191100Y0018129D01*
X0191190Y0018238D01*
X0191283Y0018344D01*
X0191378Y0018447D01*
X0191477Y0018548D01*
X0191578Y0018646D01*
X0191682Y0018741D01*
X0191789Y0018833D01*
X0191898Y0018922D01*
X0192010Y0019007D01*
X0192124Y0019090D01*
X0192240Y0019170D01*
X0192359Y0019246D01*
X0192480Y0019318D01*
X0192602Y0019388D01*
X0192727Y0019453D01*
X0192853Y0019516D01*
X0192981Y0019574D01*
X0193111Y0019629D01*
X0193242Y0019681D01*
X0193375Y0019728D01*
X0193509Y0019772D01*
X0193644Y0019813D01*
X0193780Y0019849D01*
X0193917Y0019881D01*
X0194055Y0019910D01*
X0194193Y0019935D01*
X0194333Y0019955D01*
X0194473Y0019972D01*
X0194613Y0019985D01*
X0194754Y0019994D01*
X0194894Y0019999D01*
X0195035Y0020000D01*
X0195176Y0019997D01*
X0195317Y0019990D01*
X0195457Y0019979D01*
X0195597Y0019964D01*
X0195737Y0019945D01*
X0195876Y0019923D01*
X0196014Y0019896D01*
X0196152Y0019866D01*
X0196288Y0019831D01*
X0196424Y0019793D01*
X0196558Y0019751D01*
X0196692Y0019705D01*
X0196824Y0019656D01*
X0196954Y0019602D01*
X0197083Y0019545D01*
X0197210Y0019485D01*
X0197336Y0019421D01*
X0197459Y0019353D01*
X0197581Y0019282D01*
X0197701Y0019208D01*
X0197818Y0019130D01*
X0197933Y0019049D01*
X0198046Y0018965D01*
X0198157Y0018878D01*
X0198265Y0018787D01*
X0198370Y0018694D01*
X0198473Y0018597D01*
X0198573Y0018498D01*
X0198670Y0018396D01*
X0198764Y0018291D01*
X0198855Y0018184D01*
X0198943Y0018074D01*
X0199028Y0017962D01*
X0199110Y0017847D01*
X0199189Y0017730D01*
X0199264Y0017611D01*
X0199336Y0017490D01*
X0199404Y0017367D01*
X0199469Y0017242D01*
X0199531Y0017115D01*
X0199588Y0016986D01*
X0199643Y0016856D01*
X0199693Y0016725D01*
X0199740Y0016592D01*
X0199783Y0016458D01*
X0199822Y0016322D01*
X0199857Y0016186D01*
X0199889Y0016049D01*
X0199916Y0015911D01*
X0199940Y0015772D01*
X0199960Y0015632D01*
X0199976Y0015492D01*
X0199988Y0015352D01*
X0199996Y0015211D01*
X0200000Y0015070D01*
X0200000Y0014930D01*
X0199996Y0014789D01*
X0199988Y0014648D01*
X0199976Y0014508D01*
X0199960Y0014368D01*
X0199940Y0014228D01*
X0199916Y0014089D01*
X0199889Y0013951D01*
X0199857Y0013814D01*
X0199822Y0013678D01*
X0199783Y0013542D01*
X0199740Y0013408D01*
X0199693Y0013275D01*
X0199643Y0013144D01*
X0199588Y0013014D01*
X0199531Y0012885D01*
X0199469Y0012758D01*
X0199404Y0012633D01*
X0199336Y0012510D01*
X0199264Y0012389D01*
X0199189Y0012270D01*
X0199110Y0012153D01*
X0199028Y0012038D01*
X0198943Y0011926D01*
X0198855Y0011816D01*
X0198764Y0011709D01*
X0198670Y0011604D01*
X0198573Y0011502D01*
X0198473Y0011403D01*
X0198370Y0011306D01*
X0198265Y0011213D01*
X0198157Y0011122D01*
X0198046Y0011035D01*
X0197933Y0010951D01*
X0197818Y0010870D01*
X0197701Y0010792D01*
X0197581Y0010718D01*
X0197459Y0010647D01*
X0197336Y0010579D01*
X0197210Y0010515D01*
X0197083Y0010455D01*
X0196954Y0010398D01*
X0196824Y0010344D01*
X0196692Y0010295D01*
X0196558Y0010249D01*
X0196424Y0010207D01*
X0196288Y0010169D01*
X0196152Y0010134D01*
X0196014Y0010104D01*
X0195876Y0010077D01*
X0195737Y0010055D01*
X0195597Y0010036D01*
X0195457Y0010021D01*
X0195317Y0010010D01*
X0195176Y0010003D01*
X0195035Y0010000D01*
X0194894Y0010001D01*
X0194754Y0010006D01*
X0194613Y0010015D01*
X0194473Y0010028D01*
X0194333Y0010045D01*
X0194193Y0010065D01*
X0194055Y0010090D01*
X0193917Y0010119D01*
X0193780Y0010151D01*
X0193644Y0010187D01*
X0193509Y0010228D01*
X0193375Y0010272D01*
X0193242Y0010319D01*
X0193111Y0010371D01*
X0192981Y0010426D01*
X0192853Y0010484D01*
X0192727Y0010547D01*
X0192602Y0010612D01*
X0192480Y0010682D01*
X0192359Y0010754D01*
X0192240Y0010830D01*
X0192124Y0010910D01*
X0192010Y0010993D01*
X0191898Y0011078D01*
X0191789Y0011167D01*
X0191682Y0011259D01*
X0191578Y0011354D01*
X0191477Y0011452D01*
X0191378Y0011553D01*
X0191283Y0011656D01*
X0191190Y0011762D01*
X0191100Y0011871D01*
X0191014Y0011982D01*
X0190930Y0012095D01*
X0190850Y0012211D01*
X0190773Y0012329D01*
X0190700Y0012449D01*
X0190629Y0012572D01*
X0190563Y0012696D01*
X0190500Y0012822D01*
X0190440Y0012949D01*
X0190384Y0013078D01*
X0190332Y0013209D01*
X0190283Y0013341D01*
X0190238Y0013475D01*
X0190197Y0013610D01*
X0190160Y0013746D01*
X0190126Y0013882D01*
X0190097Y0014020D01*
X0190071Y0014159D01*
X0190050Y0014298D01*
X0190032Y0014438D01*
X0190018Y0014578D01*
X0190008Y0014718D01*
X0190002Y0014859D01*
X0190000Y0015000D01*
X0195000Y0005000D02*
X0195242Y0005003D01*
X0195483Y0005012D01*
X0195724Y0005026D01*
X0195965Y0005047D01*
X0196205Y0005073D01*
X0196445Y0005105D01*
X0196684Y0005143D01*
X0196921Y0005186D01*
X0197158Y0005236D01*
X0197393Y0005291D01*
X0197627Y0005351D01*
X0197859Y0005418D01*
X0198090Y0005489D01*
X0198319Y0005567D01*
X0198546Y0005650D01*
X0198771Y0005738D01*
X0198994Y0005832D01*
X0199214Y0005931D01*
X0199432Y0006036D01*
X0199647Y0006145D01*
X0199860Y0006260D01*
X0200070Y0006380D01*
X0200276Y0006505D01*
X0200480Y0006635D01*
X0200681Y0006770D01*
X0200878Y0006910D01*
X0201072Y0007054D01*
X0201262Y0007203D01*
X0201448Y0007357D01*
X0201631Y0007515D01*
X0201810Y0007677D01*
X0201985Y0007844D01*
X0202156Y0008015D01*
X0202323Y0008190D01*
X0202485Y0008369D01*
X0202643Y0008552D01*
X0202797Y0008738D01*
X0202946Y0008928D01*
X0203090Y0009122D01*
X0203230Y0009319D01*
X0203365Y0009520D01*
X0203495Y0009724D01*
X0203620Y0009930D01*
X0203740Y0010140D01*
X0203855Y0010353D01*
X0203964Y0010568D01*
X0204069Y0010786D01*
X0204168Y0011006D01*
X0204262Y0011229D01*
X0204350Y0011454D01*
X0204433Y0011681D01*
X0204511Y0011910D01*
X0204582Y0012141D01*
X0204649Y0012373D01*
X0204709Y0012607D01*
X0204764Y0012842D01*
X0204814Y0013079D01*
X0204857Y0013316D01*
X0204895Y0013555D01*
X0204927Y0013795D01*
X0204953Y0014035D01*
X0204974Y0014276D01*
X0204988Y0014517D01*
X0204997Y0014758D01*
X0205000Y0015000D01*
X0205000Y0085000D01*
X0190000Y0085000D02*
X0190002Y0085141D01*
X0190008Y0085282D01*
X0190018Y0085422D01*
X0190032Y0085562D01*
X0190050Y0085702D01*
X0190071Y0085841D01*
X0190097Y0085980D01*
X0190126Y0086118D01*
X0190160Y0086254D01*
X0190197Y0086390D01*
X0190238Y0086525D01*
X0190283Y0086659D01*
X0190332Y0086791D01*
X0190384Y0086922D01*
X0190440Y0087051D01*
X0190500Y0087178D01*
X0190563Y0087304D01*
X0190629Y0087428D01*
X0190700Y0087551D01*
X0190773Y0087671D01*
X0190850Y0087789D01*
X0190930Y0087905D01*
X0191014Y0088018D01*
X0191100Y0088129D01*
X0191190Y0088238D01*
X0191283Y0088344D01*
X0191378Y0088447D01*
X0191477Y0088548D01*
X0191578Y0088646D01*
X0191682Y0088741D01*
X0191789Y0088833D01*
X0191898Y0088922D01*
X0192010Y0089007D01*
X0192124Y0089090D01*
X0192240Y0089170D01*
X0192359Y0089246D01*
X0192480Y0089318D01*
X0192602Y0089388D01*
X0192727Y0089453D01*
X0192853Y0089516D01*
X0192981Y0089574D01*
X0193111Y0089629D01*
X0193242Y0089681D01*
X0193375Y0089728D01*
X0193509Y0089772D01*
X0193644Y0089813D01*
X0193780Y0089849D01*
X0193917Y0089881D01*
X0194055Y0089910D01*
X0194193Y0089935D01*
X0194333Y0089955D01*
X0194473Y0089972D01*
X0194613Y0089985D01*
X0194754Y0089994D01*
X0194894Y0089999D01*
X0195035Y0090000D01*
X0195176Y0089997D01*
X0195317Y0089990D01*
X0195457Y0089979D01*
X0195597Y0089964D01*
X0195737Y0089945D01*
X0195876Y0089923D01*
X0196014Y0089896D01*
X0196152Y0089866D01*
X0196288Y0089831D01*
X0196424Y0089793D01*
X0196558Y0089751D01*
X0196692Y0089705D01*
X0196824Y0089656D01*
X0196954Y0089602D01*
X0197083Y0089545D01*
X0197210Y0089485D01*
X0197336Y0089421D01*
X0197459Y0089353D01*
X0197581Y0089282D01*
X0197701Y0089208D01*
X0197818Y0089130D01*
X0197933Y0089049D01*
X0198046Y0088965D01*
X0198157Y0088878D01*
X0198265Y0088787D01*
X0198370Y0088694D01*
X0198473Y0088597D01*
X0198573Y0088498D01*
X0198670Y0088396D01*
X0198764Y0088291D01*
X0198855Y0088184D01*
X0198943Y0088074D01*
X0199028Y0087962D01*
X0199110Y0087847D01*
X0199189Y0087730D01*
X0199264Y0087611D01*
X0199336Y0087490D01*
X0199404Y0087367D01*
X0199469Y0087242D01*
X0199531Y0087115D01*
X0199588Y0086986D01*
X0199643Y0086856D01*
X0199693Y0086725D01*
X0199740Y0086592D01*
X0199783Y0086458D01*
X0199822Y0086322D01*
X0199857Y0086186D01*
X0199889Y0086049D01*
X0199916Y0085911D01*
X0199940Y0085772D01*
X0199960Y0085632D01*
X0199976Y0085492D01*
X0199988Y0085352D01*
X0199996Y0085211D01*
X0200000Y0085070D01*
X0200000Y0084930D01*
X0199996Y0084789D01*
X0199988Y0084648D01*
X0199976Y0084508D01*
X0199960Y0084368D01*
X0199940Y0084228D01*
X0199916Y0084089D01*
X0199889Y0083951D01*
X0199857Y0083814D01*
X0199822Y0083678D01*
X0199783Y0083542D01*
X0199740Y0083408D01*
X0199693Y0083275D01*
X0199643Y0083144D01*
X0199588Y0083014D01*
X0199531Y0082885D01*
X0199469Y0082758D01*
X0199404Y0082633D01*
X0199336Y0082510D01*
X0199264Y0082389D01*
X0199189Y0082270D01*
X0199110Y0082153D01*
X0199028Y0082038D01*
X0198943Y0081926D01*
X0198855Y0081816D01*
X0198764Y0081709D01*
X0198670Y0081604D01*
X0198573Y0081502D01*
X0198473Y0081403D01*
X0198370Y0081306D01*
X0198265Y0081213D01*
X0198157Y0081122D01*
X0198046Y0081035D01*
X0197933Y0080951D01*
X0197818Y0080870D01*
X0197701Y0080792D01*
X0197581Y0080718D01*
X0197459Y0080647D01*
X0197336Y0080579D01*
X0197210Y0080515D01*
X0197083Y0080455D01*
X0196954Y0080398D01*
X0196824Y0080344D01*
X0196692Y0080295D01*
X0196558Y0080249D01*
X0196424Y0080207D01*
X0196288Y0080169D01*
X0196152Y0080134D01*
X0196014Y0080104D01*
X0195876Y0080077D01*
X0195737Y0080055D01*
X0195597Y0080036D01*
X0195457Y0080021D01*
X0195317Y0080010D01*
X0195176Y0080003D01*
X0195035Y0080000D01*
X0194894Y0080001D01*
X0194754Y0080006D01*
X0194613Y0080015D01*
X0194473Y0080028D01*
X0194333Y0080045D01*
X0194193Y0080065D01*
X0194055Y0080090D01*
X0193917Y0080119D01*
X0193780Y0080151D01*
X0193644Y0080187D01*
X0193509Y0080228D01*
X0193375Y0080272D01*
X0193242Y0080319D01*
X0193111Y0080371D01*
X0192981Y0080426D01*
X0192853Y0080484D01*
X0192727Y0080547D01*
X0192602Y0080612D01*
X0192480Y0080682D01*
X0192359Y0080754D01*
X0192240Y0080830D01*
X0192124Y0080910D01*
X0192010Y0080993D01*
X0191898Y0081078D01*
X0191789Y0081167D01*
X0191682Y0081259D01*
X0191578Y0081354D01*
X0191477Y0081452D01*
X0191378Y0081553D01*
X0191283Y0081656D01*
X0191190Y0081762D01*
X0191100Y0081871D01*
X0191014Y0081982D01*
X0190930Y0082095D01*
X0190850Y0082211D01*
X0190773Y0082329D01*
X0190700Y0082449D01*
X0190629Y0082572D01*
X0190563Y0082696D01*
X0190500Y0082822D01*
X0190440Y0082949D01*
X0190384Y0083078D01*
X0190332Y0083209D01*
X0190283Y0083341D01*
X0190238Y0083475D01*
X0190197Y0083610D01*
X0190160Y0083746D01*
X0190126Y0083882D01*
X0190097Y0084020D01*
X0190071Y0084159D01*
X0190050Y0084298D01*
X0190032Y0084438D01*
X0190018Y0084578D01*
X0190008Y0084718D01*
X0190002Y0084859D01*
X0190000Y0085000D01*
X0195000Y0095000D02*
X0195242Y0094997D01*
X0195483Y0094988D01*
X0195724Y0094974D01*
X0195965Y0094953D01*
X0196205Y0094927D01*
X0196445Y0094895D01*
X0196684Y0094857D01*
X0196921Y0094814D01*
X0197158Y0094764D01*
X0197393Y0094709D01*
X0197627Y0094649D01*
X0197859Y0094582D01*
X0198090Y0094511D01*
X0198319Y0094433D01*
X0198546Y0094350D01*
X0198771Y0094262D01*
X0198994Y0094168D01*
X0199214Y0094069D01*
X0199432Y0093964D01*
X0199647Y0093855D01*
X0199860Y0093740D01*
X0200070Y0093620D01*
X0200276Y0093495D01*
X0200480Y0093365D01*
X0200681Y0093230D01*
X0200878Y0093090D01*
X0201072Y0092946D01*
X0201262Y0092797D01*
X0201448Y0092643D01*
X0201631Y0092485D01*
X0201810Y0092323D01*
X0201985Y0092156D01*
X0202156Y0091985D01*
X0202323Y0091810D01*
X0202485Y0091631D01*
X0202643Y0091448D01*
X0202797Y0091262D01*
X0202946Y0091072D01*
X0203090Y0090878D01*
X0203230Y0090681D01*
X0203365Y0090480D01*
X0203495Y0090276D01*
X0203620Y0090070D01*
X0203740Y0089860D01*
X0203855Y0089647D01*
X0203964Y0089432D01*
X0204069Y0089214D01*
X0204168Y0088994D01*
X0204262Y0088771D01*
X0204350Y0088546D01*
X0204433Y0088319D01*
X0204511Y0088090D01*
X0204582Y0087859D01*
X0204649Y0087627D01*
X0204709Y0087393D01*
X0204764Y0087158D01*
X0204814Y0086921D01*
X0204857Y0086684D01*
X0204895Y0086445D01*
X0204927Y0086205D01*
X0204953Y0085965D01*
X0204974Y0085724D01*
X0204988Y0085483D01*
X0204997Y0085242D01*
X0205000Y0085000D01*
X0195000Y0095000D02*
X0015000Y0095000D01*
X0014758Y0094997D01*
X0014517Y0094988D01*
X0014276Y0094974D01*
X0014035Y0094953D01*
X0013795Y0094927D01*
X0013555Y0094895D01*
X0013316Y0094857D01*
X0013079Y0094814D01*
X0012842Y0094764D01*
X0012607Y0094709D01*
X0012373Y0094649D01*
X0012141Y0094582D01*
X0011910Y0094511D01*
X0011681Y0094433D01*
X0011454Y0094350D01*
X0011229Y0094262D01*
X0011006Y0094168D01*
X0010786Y0094069D01*
X0010568Y0093964D01*
X0010353Y0093855D01*
X0010140Y0093740D01*
X0009930Y0093620D01*
X0009724Y0093495D01*
X0009520Y0093365D01*
X0009319Y0093230D01*
X0009122Y0093090D01*
X0008928Y0092946D01*
X0008738Y0092797D01*
X0008552Y0092643D01*
X0008369Y0092485D01*
X0008190Y0092323D01*
X0008015Y0092156D01*
X0007844Y0091985D01*
X0007677Y0091810D01*
X0007515Y0091631D01*
X0007357Y0091448D01*
X0007203Y0091262D01*
X0007054Y0091072D01*
X0006910Y0090878D01*
X0006770Y0090681D01*
X0006635Y0090480D01*
X0006505Y0090276D01*
X0006380Y0090070D01*
X0006260Y0089860D01*
X0006145Y0089647D01*
X0006036Y0089432D01*
X0005931Y0089214D01*
X0005832Y0088994D01*
X0005738Y0088771D01*
X0005650Y0088546D01*
X0005567Y0088319D01*
X0005489Y0088090D01*
X0005418Y0087859D01*
X0005351Y0087627D01*
X0005291Y0087393D01*
X0005236Y0087158D01*
X0005186Y0086921D01*
X0005143Y0086684D01*
X0005105Y0086445D01*
X0005073Y0086205D01*
X0005047Y0085965D01*
X0005026Y0085724D01*
X0005012Y0085483D01*
X0005003Y0085242D01*
X0005000Y0085000D01*
X0005000Y0015000D01*
X0005003Y0014758D01*
X0005012Y0014517D01*
X0005026Y0014276D01*
X0005047Y0014035D01*
X0005073Y0013795D01*
X0005105Y0013555D01*
X0005143Y0013316D01*
X0005186Y0013079D01*
X0005236Y0012842D01*
X0005291Y0012607D01*
X0005351Y0012373D01*
X0005418Y0012141D01*
X0005489Y0011910D01*
X0005567Y0011681D01*
X0005650Y0011454D01*
X0005738Y0011229D01*
X0005832Y0011006D01*
X0005931Y0010786D01*
X0006036Y0010568D01*
X0006145Y0010353D01*
X0006260Y0010140D01*
X0006380Y0009930D01*
X0006505Y0009724D01*
X0006635Y0009520D01*
X0006770Y0009319D01*
X0006910Y0009122D01*
X0007054Y0008928D01*
X0007203Y0008738D01*
X0007357Y0008552D01*
X0007515Y0008369D01*
X0007677Y0008190D01*
X0007844Y0008015D01*
X0008015Y0007844D01*
X0008190Y0007677D01*
X0008369Y0007515D01*
X0008552Y0007357D01*
X0008738Y0007203D01*
X0008928Y0007054D01*
X0009122Y0006910D01*
X0009319Y0006770D01*
X0009520Y0006635D01*
X0009724Y0006505D01*
X0009930Y0006380D01*
X0010140Y0006260D01*
X0010353Y0006145D01*
X0010568Y0006036D01*
X0010786Y0005931D01*
X0011006Y0005832D01*
X0011229Y0005738D01*
X0011454Y0005650D01*
X0011681Y0005567D01*
X0011910Y0005489D01*
X0012141Y0005418D01*
X0012373Y0005351D01*
X0012607Y0005291D01*
X0012842Y0005236D01*
X0013079Y0005186D01*
X0013316Y0005143D01*
X0013555Y0005105D01*
X0013795Y0005073D01*
X0014035Y0005047D01*
X0014276Y0005026D01*
X0014517Y0005012D01*
X0014758Y0005003D01*
X0015000Y0005000D01*
D11*
X0031500Y0023000D02*
X0035000Y0023000D01*
X0044500Y0023000D01*
X0048500Y0023000D01*
X0052000Y0031000D02*
X0052000Y0032000D01*
X0053000Y0032000D01*
X0053000Y0038000D01*
X0052000Y0038000D01*
X0052000Y0039000D01*
X0039000Y0035000D02*
X0039002Y0035063D01*
X0039008Y0035125D01*
X0039018Y0035187D01*
X0039031Y0035249D01*
X0039049Y0035309D01*
X0039070Y0035368D01*
X0039095Y0035426D01*
X0039124Y0035482D01*
X0039156Y0035536D01*
X0039191Y0035588D01*
X0039229Y0035637D01*
X0039271Y0035685D01*
X0039315Y0035729D01*
X0039363Y0035771D01*
X0039412Y0035809D01*
X0039464Y0035844D01*
X0039518Y0035876D01*
X0039574Y0035905D01*
X0039632Y0035930D01*
X0039691Y0035951D01*
X0039751Y0035969D01*
X0039813Y0035982D01*
X0039875Y0035992D01*
X0039937Y0035998D01*
X0040000Y0036000D01*
X0040063Y0035998D01*
X0040125Y0035992D01*
X0040187Y0035982D01*
X0040249Y0035969D01*
X0040309Y0035951D01*
X0040368Y0035930D01*
X0040426Y0035905D01*
X0040482Y0035876D01*
X0040536Y0035844D01*
X0040588Y0035809D01*
X0040637Y0035771D01*
X0040685Y0035729D01*
X0040729Y0035685D01*
X0040771Y0035637D01*
X0040809Y0035588D01*
X0040844Y0035536D01*
X0040876Y0035482D01*
X0040905Y0035426D01*
X0040930Y0035368D01*
X0040951Y0035309D01*
X0040969Y0035249D01*
X0040982Y0035187D01*
X0040992Y0035125D01*
X0040998Y0035063D01*
X0041000Y0035000D01*
X0040998Y0034937D01*
X0040992Y0034875D01*
X0040982Y0034813D01*
X0040969Y0034751D01*
X0040951Y0034691D01*
X0040930Y0034632D01*
X0040905Y0034574D01*
X0040876Y0034518D01*
X0040844Y0034464D01*
X0040809Y0034412D01*
X0040771Y0034363D01*
X0040729Y0034315D01*
X0040685Y0034271D01*
X0040637Y0034229D01*
X0040588Y0034191D01*
X0040536Y0034156D01*
X0040482Y0034124D01*
X0040426Y0034095D01*
X0040368Y0034070D01*
X0040309Y0034049D01*
X0040249Y0034031D01*
X0040187Y0034018D01*
X0040125Y0034008D01*
X0040063Y0034002D01*
X0040000Y0034000D01*
X0039937Y0034002D01*
X0039875Y0034008D01*
X0039813Y0034018D01*
X0039751Y0034031D01*
X0039691Y0034049D01*
X0039632Y0034070D01*
X0039574Y0034095D01*
X0039518Y0034124D01*
X0039464Y0034156D01*
X0039412Y0034191D01*
X0039363Y0034229D01*
X0039315Y0034271D01*
X0039271Y0034315D01*
X0039229Y0034363D01*
X0039191Y0034412D01*
X0039156Y0034464D01*
X0039124Y0034518D01*
X0039095Y0034574D01*
X0039070Y0034632D01*
X0039049Y0034691D01*
X0039031Y0034751D01*
X0039018Y0034813D01*
X0039008Y0034875D01*
X0039002Y0034937D01*
X0039000Y0035000D01*
X0033000Y0035000D02*
X0033002Y0035172D01*
X0033008Y0035343D01*
X0033019Y0035515D01*
X0033034Y0035686D01*
X0033053Y0035857D01*
X0033076Y0036027D01*
X0033103Y0036197D01*
X0033135Y0036366D01*
X0033170Y0036534D01*
X0033210Y0036701D01*
X0033254Y0036867D01*
X0033301Y0037032D01*
X0033353Y0037196D01*
X0033409Y0037358D01*
X0033469Y0037519D01*
X0033533Y0037679D01*
X0033601Y0037837D01*
X0033672Y0037993D01*
X0033747Y0038147D01*
X0033827Y0038300D01*
X0033909Y0038450D01*
X0033996Y0038599D01*
X0034086Y0038745D01*
X0034180Y0038889D01*
X0034277Y0039031D01*
X0034378Y0039170D01*
X0034482Y0039307D01*
X0034589Y0039441D01*
X0034700Y0039572D01*
X0034813Y0039701D01*
X0034930Y0039827D01*
X0035050Y0039950D01*
X0035173Y0040070D01*
X0035299Y0040187D01*
X0035428Y0040300D01*
X0035559Y0040411D01*
X0035693Y0040518D01*
X0035830Y0040622D01*
X0035969Y0040723D01*
X0036111Y0040820D01*
X0036255Y0040914D01*
X0036401Y0041004D01*
X0036550Y0041091D01*
X0036700Y0041173D01*
X0036853Y0041253D01*
X0037007Y0041328D01*
X0037163Y0041399D01*
X0037321Y0041467D01*
X0037481Y0041531D01*
X0037642Y0041591D01*
X0037804Y0041647D01*
X0037968Y0041699D01*
X0038133Y0041746D01*
X0038299Y0041790D01*
X0038466Y0041830D01*
X0038634Y0041865D01*
X0038803Y0041897D01*
X0038973Y0041924D01*
X0039143Y0041947D01*
X0039314Y0041966D01*
X0039485Y0041981D01*
X0039657Y0041992D01*
X0039828Y0041998D01*
X0040000Y0042000D01*
X0040172Y0041998D01*
X0040343Y0041992D01*
X0040515Y0041981D01*
X0040686Y0041966D01*
X0040857Y0041947D01*
X0041027Y0041924D01*
X0041197Y0041897D01*
X0041366Y0041865D01*
X0041534Y0041830D01*
X0041701Y0041790D01*
X0041867Y0041746D01*
X0042032Y0041699D01*
X0042196Y0041647D01*
X0042358Y0041591D01*
X0042519Y0041531D01*
X0042679Y0041467D01*
X0042837Y0041399D01*
X0042993Y0041328D01*
X0043147Y0041253D01*
X0043300Y0041173D01*
X0043450Y0041091D01*
X0043599Y0041004D01*
X0043745Y0040914D01*
X0043889Y0040820D01*
X0044031Y0040723D01*
X0044170Y0040622D01*
X0044307Y0040518D01*
X0044441Y0040411D01*
X0044572Y0040300D01*
X0044701Y0040187D01*
X0044827Y0040070D01*
X0044950Y0039950D01*
X0045070Y0039827D01*
X0045187Y0039701D01*
X0045300Y0039572D01*
X0045411Y0039441D01*
X0045518Y0039307D01*
X0045622Y0039170D01*
X0045723Y0039031D01*
X0045820Y0038889D01*
X0045914Y0038745D01*
X0046004Y0038599D01*
X0046091Y0038450D01*
X0046173Y0038300D01*
X0046253Y0038147D01*
X0046328Y0037993D01*
X0046399Y0037837D01*
X0046467Y0037679D01*
X0046531Y0037519D01*
X0046591Y0037358D01*
X0046647Y0037196D01*
X0046699Y0037032D01*
X0046746Y0036867D01*
X0046790Y0036701D01*
X0046830Y0036534D01*
X0046865Y0036366D01*
X0046897Y0036197D01*
X0046924Y0036027D01*
X0046947Y0035857D01*
X0046966Y0035686D01*
X0046981Y0035515D01*
X0046992Y0035343D01*
X0046998Y0035172D01*
X0047000Y0035000D01*
X0046998Y0034828D01*
X0046992Y0034657D01*
X0046981Y0034485D01*
X0046966Y0034314D01*
X0046947Y0034143D01*
X0046924Y0033973D01*
X0046897Y0033803D01*
X0046865Y0033634D01*
X0046830Y0033466D01*
X0046790Y0033299D01*
X0046746Y0033133D01*
X0046699Y0032968D01*
X0046647Y0032804D01*
X0046591Y0032642D01*
X0046531Y0032481D01*
X0046467Y0032321D01*
X0046399Y0032163D01*
X0046328Y0032007D01*
X0046253Y0031853D01*
X0046173Y0031700D01*
X0046091Y0031550D01*
X0046004Y0031401D01*
X0045914Y0031255D01*
X0045820Y0031111D01*
X0045723Y0030969D01*
X0045622Y0030830D01*
X0045518Y0030693D01*
X0045411Y0030559D01*
X0045300Y0030428D01*
X0045187Y0030299D01*
X0045070Y0030173D01*
X0044950Y0030050D01*
X0044827Y0029930D01*
X0044701Y0029813D01*
X0044572Y0029700D01*
X0044441Y0029589D01*
X0044307Y0029482D01*
X0044170Y0029378D01*
X0044031Y0029277D01*
X0043889Y0029180D01*
X0043745Y0029086D01*
X0043599Y0028996D01*
X0043450Y0028909D01*
X0043300Y0028827D01*
X0043147Y0028747D01*
X0042993Y0028672D01*
X0042837Y0028601D01*
X0042679Y0028533D01*
X0042519Y0028469D01*
X0042358Y0028409D01*
X0042196Y0028353D01*
X0042032Y0028301D01*
X0041867Y0028254D01*
X0041701Y0028210D01*
X0041534Y0028170D01*
X0041366Y0028135D01*
X0041197Y0028103D01*
X0041027Y0028076D01*
X0040857Y0028053D01*
X0040686Y0028034D01*
X0040515Y0028019D01*
X0040343Y0028008D01*
X0040172Y0028002D01*
X0040000Y0028000D01*
X0039828Y0028002D01*
X0039657Y0028008D01*
X0039485Y0028019D01*
X0039314Y0028034D01*
X0039143Y0028053D01*
X0038973Y0028076D01*
X0038803Y0028103D01*
X0038634Y0028135D01*
X0038466Y0028170D01*
X0038299Y0028210D01*
X0038133Y0028254D01*
X0037968Y0028301D01*
X0037804Y0028353D01*
X0037642Y0028409D01*
X0037481Y0028469D01*
X0037321Y0028533D01*
X0037163Y0028601D01*
X0037007Y0028672D01*
X0036853Y0028747D01*
X0036700Y0028827D01*
X0036550Y0028909D01*
X0036401Y0028996D01*
X0036255Y0029086D01*
X0036111Y0029180D01*
X0035969Y0029277D01*
X0035830Y0029378D01*
X0035693Y0029482D01*
X0035559Y0029589D01*
X0035428Y0029700D01*
X0035299Y0029813D01*
X0035173Y0029930D01*
X0035050Y0030050D01*
X0034930Y0030173D01*
X0034813Y0030299D01*
X0034700Y0030428D01*
X0034589Y0030559D01*
X0034482Y0030693D01*
X0034378Y0030830D01*
X0034277Y0030969D01*
X0034180Y0031111D01*
X0034086Y0031255D01*
X0033996Y0031401D01*
X0033909Y0031550D01*
X0033827Y0031700D01*
X0033747Y0031853D01*
X0033672Y0032007D01*
X0033601Y0032163D01*
X0033533Y0032321D01*
X0033469Y0032481D01*
X0033409Y0032642D01*
X0033353Y0032804D01*
X0033301Y0032968D01*
X0033254Y0033133D01*
X0033210Y0033299D01*
X0033170Y0033466D01*
X0033135Y0033634D01*
X0033103Y0033803D01*
X0033076Y0033973D01*
X0033053Y0034143D01*
X0033034Y0034314D01*
X0033019Y0034485D01*
X0033008Y0034657D01*
X0033002Y0034828D01*
X0033000Y0035000D01*
X0028000Y0032000D02*
X0028000Y0031000D01*
X0028000Y0032000D02*
X0027000Y0032000D01*
X0027000Y0038000D01*
X0028000Y0038000D01*
X0028000Y0039000D01*
X0031500Y0047000D02*
X0035000Y0047000D01*
X0045000Y0047000D01*
X0048500Y0047000D01*
X0115000Y0037500D02*
X0115000Y0032500D01*
X0117500Y0030000D01*
X0122500Y0030000D01*
X0125000Y0032500D01*
X0127500Y0030000D01*
X0132500Y0030000D01*
X0135000Y0032500D01*
X0137500Y0030000D01*
X0142500Y0030000D01*
X0145000Y0032500D01*
X0145000Y0037500D01*
X0142500Y0040000D01*
X0137500Y0040000D01*
X0135000Y0037500D01*
X0135000Y0032500D01*
X0125000Y0032500D02*
X0125000Y0037500D01*
X0127500Y0040000D01*
X0132500Y0040000D01*
X0135000Y0037500D01*
X0125000Y0037500D02*
X0122500Y0040000D01*
X0117500Y0040000D01*
X0115000Y0037500D01*
X0140000Y0057500D02*
X0142500Y0055000D01*
X0147500Y0055000D01*
X0150000Y0057500D01*
X0150000Y0062500D01*
X0147500Y0065000D01*
X0142500Y0065000D01*
X0140000Y0062500D01*
X0140000Y0057500D01*
X0150000Y0057500D02*
X0152500Y0055000D01*
X0157500Y0055000D01*
X0160000Y0057500D01*
X0160000Y0062500D01*
X0162500Y0065000D01*
X0167500Y0065000D01*
X0170000Y0062500D01*
X0172500Y0065000D01*
X0177500Y0065000D01*
X0180000Y0062500D01*
X0180000Y0057500D01*
X0177500Y0055000D01*
X0172500Y0055000D01*
X0170000Y0057500D01*
X0167500Y0055000D01*
X0162500Y0055000D01*
X0160000Y0057500D01*
X0170000Y0057500D02*
X0170000Y0062500D01*
X0160000Y0062500D02*
X0157500Y0065000D01*
X0152500Y0065000D01*
X0150000Y0062500D01*
D12*
X0149877Y0068050D02*
X0149877Y0072550D01*
X0151877Y0072550D01*
X0153603Y0071550D02*
X0153603Y0069050D01*
X0153605Y0068990D01*
X0153610Y0068929D01*
X0153619Y0068870D01*
X0153632Y0068811D01*
X0153648Y0068752D01*
X0153668Y0068695D01*
X0153691Y0068640D01*
X0153718Y0068585D01*
X0153747Y0068533D01*
X0153780Y0068482D01*
X0153816Y0068433D01*
X0153854Y0068387D01*
X0153896Y0068343D01*
X0153940Y0068301D01*
X0153986Y0068263D01*
X0154035Y0068227D01*
X0154086Y0068194D01*
X0154138Y0068165D01*
X0154193Y0068138D01*
X0154248Y0068115D01*
X0154305Y0068095D01*
X0154364Y0068079D01*
X0154423Y0068066D01*
X0154482Y0068057D01*
X0154543Y0068052D01*
X0154603Y0068050D01*
X0155603Y0068050D01*
X0157527Y0068050D02*
X0157527Y0072550D01*
X0159527Y0072550D01*
X0161117Y0072550D02*
X0162117Y0072550D01*
X0161617Y0072550D02*
X0161617Y0068050D01*
X0161117Y0068050D02*
X0162117Y0068050D01*
X0159527Y0068050D02*
X0157527Y0068050D01*
X0157527Y0070550D02*
X0159027Y0070550D01*
X0155603Y0072550D02*
X0154603Y0072550D01*
X0154543Y0072548D01*
X0154482Y0072543D01*
X0154423Y0072534D01*
X0154364Y0072521D01*
X0154305Y0072505D01*
X0154248Y0072485D01*
X0154193Y0072462D01*
X0154138Y0072435D01*
X0154086Y0072406D01*
X0154035Y0072373D01*
X0153986Y0072337D01*
X0153940Y0072299D01*
X0153896Y0072257D01*
X0153854Y0072213D01*
X0153816Y0072167D01*
X0153780Y0072118D01*
X0153747Y0072067D01*
X0153718Y0072015D01*
X0153691Y0071960D01*
X0153668Y0071905D01*
X0153648Y0071848D01*
X0153632Y0071789D01*
X0153619Y0071730D01*
X0153610Y0071671D01*
X0153605Y0071610D01*
X0153603Y0071550D01*
X0151377Y0070550D02*
X0149877Y0070550D01*
X0146750Y0070050D02*
X0147750Y0068050D01*
X0149877Y0068050D02*
X0151877Y0068050D01*
X0146500Y0070050D02*
X0145250Y0070050D01*
X0146500Y0070050D02*
X0146569Y0070052D01*
X0146638Y0070058D01*
X0146706Y0070067D01*
X0146773Y0070080D01*
X0146840Y0070097D01*
X0146906Y0070118D01*
X0146970Y0070142D01*
X0147033Y0070170D01*
X0147095Y0070201D01*
X0147155Y0070235D01*
X0147212Y0070273D01*
X0147268Y0070314D01*
X0147321Y0070357D01*
X0147372Y0070404D01*
X0147420Y0070453D01*
X0147465Y0070505D01*
X0147507Y0070560D01*
X0147546Y0070616D01*
X0147583Y0070675D01*
X0147615Y0070736D01*
X0147645Y0070798D01*
X0147671Y0070862D01*
X0147693Y0070927D01*
X0147712Y0070993D01*
X0147727Y0071060D01*
X0147738Y0071128D01*
X0147746Y0071197D01*
X0147750Y0071266D01*
X0147750Y0071334D01*
X0147746Y0071403D01*
X0147738Y0071472D01*
X0147727Y0071540D01*
X0147712Y0071607D01*
X0147693Y0071673D01*
X0147671Y0071738D01*
X0147645Y0071802D01*
X0147615Y0071864D01*
X0147583Y0071925D01*
X0147546Y0071984D01*
X0147507Y0072040D01*
X0147465Y0072095D01*
X0147420Y0072147D01*
X0147372Y0072196D01*
X0147321Y0072243D01*
X0147268Y0072286D01*
X0147212Y0072327D01*
X0147155Y0072365D01*
X0147095Y0072399D01*
X0147033Y0072430D01*
X0146970Y0072458D01*
X0146906Y0072482D01*
X0146840Y0072503D01*
X0146773Y0072520D01*
X0146706Y0072533D01*
X0146638Y0072542D01*
X0146569Y0072548D01*
X0146500Y0072550D01*
X0145250Y0072550D01*
X0145250Y0068050D01*
X0163717Y0072550D02*
X0165217Y0068050D01*
X0166717Y0072550D01*
X0168627Y0072550D02*
X0170627Y0072550D01*
X0172550Y0072550D02*
X0173800Y0072550D01*
X0173869Y0072548D01*
X0173938Y0072542D01*
X0174006Y0072533D01*
X0174073Y0072520D01*
X0174140Y0072503D01*
X0174206Y0072482D01*
X0174270Y0072458D01*
X0174333Y0072430D01*
X0174395Y0072399D01*
X0174455Y0072365D01*
X0174512Y0072327D01*
X0174568Y0072286D01*
X0174621Y0072243D01*
X0174672Y0072196D01*
X0174720Y0072147D01*
X0174765Y0072095D01*
X0174807Y0072040D01*
X0174846Y0071984D01*
X0174883Y0071925D01*
X0174915Y0071864D01*
X0174945Y0071802D01*
X0174971Y0071738D01*
X0174993Y0071673D01*
X0175012Y0071607D01*
X0175027Y0071540D01*
X0175038Y0071472D01*
X0175046Y0071403D01*
X0175050Y0071334D01*
X0175050Y0071266D01*
X0175046Y0071197D01*
X0175038Y0071128D01*
X0175027Y0071060D01*
X0175012Y0070993D01*
X0174993Y0070927D01*
X0174971Y0070862D01*
X0174945Y0070798D01*
X0174915Y0070736D01*
X0174883Y0070675D01*
X0174846Y0070616D01*
X0174807Y0070560D01*
X0174765Y0070505D01*
X0174720Y0070453D01*
X0174672Y0070404D01*
X0174621Y0070357D01*
X0174568Y0070314D01*
X0174512Y0070273D01*
X0174455Y0070235D01*
X0174395Y0070201D01*
X0174333Y0070170D01*
X0174270Y0070142D01*
X0174206Y0070118D01*
X0174140Y0070097D01*
X0174073Y0070080D01*
X0174006Y0070067D01*
X0173938Y0070058D01*
X0173869Y0070052D01*
X0173800Y0070050D01*
X0172550Y0070050D01*
X0174050Y0070050D02*
X0175050Y0068050D01*
X0172550Y0068050D02*
X0172550Y0072550D01*
X0170127Y0070550D02*
X0168627Y0070550D01*
X0168627Y0072550D02*
X0168627Y0068050D01*
X0170627Y0068050D01*
X0138133Y0046950D02*
X0136883Y0046950D01*
X0136883Y0042450D01*
X0134960Y0042450D02*
X0132960Y0042450D01*
X0132960Y0046950D01*
X0134960Y0046950D01*
X0134460Y0044950D02*
X0132960Y0044950D01*
X0130650Y0045700D02*
X0130650Y0043700D01*
X0130648Y0043632D01*
X0130643Y0043565D01*
X0130634Y0043498D01*
X0130621Y0043431D01*
X0130604Y0043366D01*
X0130585Y0043301D01*
X0130561Y0043237D01*
X0130534Y0043175D01*
X0130504Y0043114D01*
X0130471Y0043056D01*
X0130435Y0042999D01*
X0130395Y0042944D01*
X0130353Y0042891D01*
X0130307Y0042840D01*
X0130260Y0042793D01*
X0130209Y0042747D01*
X0130156Y0042705D01*
X0130101Y0042665D01*
X0130044Y0042629D01*
X0129986Y0042596D01*
X0129925Y0042566D01*
X0129863Y0042539D01*
X0129799Y0042515D01*
X0129734Y0042496D01*
X0129669Y0042479D01*
X0129602Y0042466D01*
X0129535Y0042457D01*
X0129468Y0042452D01*
X0129400Y0042450D01*
X0128150Y0042450D01*
X0128150Y0046950D01*
X0129400Y0046950D01*
X0129468Y0046948D01*
X0129535Y0046943D01*
X0129602Y0046934D01*
X0129669Y0046921D01*
X0129734Y0046904D01*
X0129799Y0046885D01*
X0129863Y0046861D01*
X0129925Y0046834D01*
X0129986Y0046804D01*
X0130044Y0046771D01*
X0130101Y0046735D01*
X0130156Y0046695D01*
X0130209Y0046653D01*
X0130260Y0046607D01*
X0130307Y0046560D01*
X0130353Y0046509D01*
X0130395Y0046456D01*
X0130435Y0046401D01*
X0130471Y0046344D01*
X0130504Y0046286D01*
X0130534Y0046225D01*
X0130561Y0046163D01*
X0130585Y0046099D01*
X0130604Y0046034D01*
X0130621Y0045969D01*
X0130634Y0045902D01*
X0130643Y0045835D01*
X0130648Y0045768D01*
X0130650Y0045700D01*
X0125850Y0046950D02*
X0125850Y0042450D01*
X0123350Y0046950D01*
X0123350Y0042450D01*
X0121460Y0042450D02*
X0119460Y0042450D01*
X0119460Y0046950D01*
X0121460Y0046950D01*
X0120960Y0044950D02*
X0119460Y0044950D01*
X0116950Y0044325D02*
X0115575Y0045075D01*
X0116075Y0046950D02*
X0116155Y0046948D01*
X0116236Y0046943D01*
X0116316Y0046934D01*
X0116395Y0046922D01*
X0116474Y0046907D01*
X0116552Y0046888D01*
X0116630Y0046866D01*
X0116706Y0046841D01*
X0116781Y0046812D01*
X0116855Y0046780D01*
X0116927Y0046745D01*
X0116998Y0046707D01*
X0117067Y0046666D01*
X0117135Y0046622D01*
X0117200Y0046575D01*
X0115575Y0045075D02*
X0115523Y0045108D01*
X0115472Y0045144D01*
X0115424Y0045183D01*
X0115379Y0045225D01*
X0115336Y0045270D01*
X0115296Y0045318D01*
X0115259Y0045367D01*
X0115225Y0045419D01*
X0115194Y0045473D01*
X0115166Y0045529D01*
X0115142Y0045586D01*
X0115122Y0045645D01*
X0115105Y0045704D01*
X0115092Y0045765D01*
X0115083Y0045826D01*
X0115077Y0045888D01*
X0115075Y0045950D01*
X0115077Y0046010D01*
X0115082Y0046071D01*
X0115091Y0046130D01*
X0115104Y0046189D01*
X0115120Y0046248D01*
X0115140Y0046305D01*
X0115163Y0046360D01*
X0115190Y0046415D01*
X0115219Y0046467D01*
X0115252Y0046518D01*
X0115288Y0046567D01*
X0115326Y0046613D01*
X0115368Y0046657D01*
X0115412Y0046699D01*
X0115458Y0046737D01*
X0115507Y0046773D01*
X0115558Y0046806D01*
X0115610Y0046835D01*
X0115665Y0046862D01*
X0115720Y0046885D01*
X0115777Y0046905D01*
X0115836Y0046921D01*
X0115895Y0046934D01*
X0115954Y0046943D01*
X0116015Y0046948D01*
X0116075Y0046950D01*
X0114950Y0043074D02*
X0115013Y0043013D01*
X0115078Y0042955D01*
X0115146Y0042899D01*
X0115217Y0042846D01*
X0115289Y0042797D01*
X0115363Y0042750D01*
X0115439Y0042706D01*
X0115517Y0042666D01*
X0115597Y0042629D01*
X0115678Y0042595D01*
X0115760Y0042565D01*
X0115844Y0042538D01*
X0115929Y0042514D01*
X0116014Y0042494D01*
X0116100Y0042478D01*
X0116187Y0042465D01*
X0116275Y0042456D01*
X0116362Y0042451D01*
X0116450Y0042449D01*
X0116450Y0042450D02*
X0116510Y0042452D01*
X0116571Y0042457D01*
X0116630Y0042466D01*
X0116689Y0042479D01*
X0116748Y0042495D01*
X0116805Y0042515D01*
X0116860Y0042538D01*
X0116915Y0042565D01*
X0116967Y0042594D01*
X0117018Y0042627D01*
X0117067Y0042663D01*
X0117113Y0042701D01*
X0117157Y0042743D01*
X0117199Y0042787D01*
X0117237Y0042833D01*
X0117273Y0042882D01*
X0117306Y0042933D01*
X0117335Y0042985D01*
X0117362Y0043040D01*
X0117385Y0043095D01*
X0117405Y0043152D01*
X0117421Y0043211D01*
X0117434Y0043270D01*
X0117443Y0043329D01*
X0117448Y0043390D01*
X0117450Y0043450D01*
X0117448Y0043512D01*
X0117442Y0043574D01*
X0117433Y0043635D01*
X0117420Y0043696D01*
X0117403Y0043755D01*
X0117383Y0043814D01*
X0117359Y0043871D01*
X0117331Y0043927D01*
X0117300Y0043981D01*
X0117266Y0044033D01*
X0117229Y0044082D01*
X0117189Y0044130D01*
X0117146Y0044175D01*
X0117101Y0044217D01*
X0117053Y0044256D01*
X0117002Y0044292D01*
X0116950Y0044325D01*
X0136883Y0044450D02*
X0138133Y0044450D01*
X0138383Y0044450D02*
X0139383Y0042450D01*
X0138133Y0044450D02*
X0138202Y0044452D01*
X0138271Y0044458D01*
X0138339Y0044467D01*
X0138406Y0044480D01*
X0138473Y0044497D01*
X0138539Y0044518D01*
X0138603Y0044542D01*
X0138666Y0044570D01*
X0138728Y0044601D01*
X0138788Y0044635D01*
X0138845Y0044673D01*
X0138901Y0044714D01*
X0138954Y0044757D01*
X0139005Y0044804D01*
X0139053Y0044853D01*
X0139098Y0044905D01*
X0139140Y0044960D01*
X0139179Y0045016D01*
X0139216Y0045075D01*
X0139248Y0045136D01*
X0139278Y0045198D01*
X0139304Y0045262D01*
X0139326Y0045327D01*
X0139345Y0045393D01*
X0139360Y0045460D01*
X0139371Y0045528D01*
X0139379Y0045597D01*
X0139383Y0045666D01*
X0139383Y0045734D01*
X0139379Y0045803D01*
X0139371Y0045872D01*
X0139360Y0045940D01*
X0139345Y0046007D01*
X0139326Y0046073D01*
X0139304Y0046138D01*
X0139278Y0046202D01*
X0139248Y0046264D01*
X0139216Y0046325D01*
X0139179Y0046384D01*
X0139140Y0046440D01*
X0139098Y0046495D01*
X0139053Y0046547D01*
X0139005Y0046596D01*
X0138954Y0046643D01*
X0138901Y0046686D01*
X0138845Y0046727D01*
X0138788Y0046765D01*
X0138728Y0046799D01*
X0138666Y0046830D01*
X0138603Y0046858D01*
X0138539Y0046882D01*
X0138473Y0046903D01*
X0138406Y0046920D01*
X0138339Y0046933D01*
X0138271Y0046942D01*
X0138202Y0046948D01*
X0138133Y0046950D01*
X0056667Y0054250D02*
X0055667Y0049750D01*
X0054667Y0052750D01*
X0053667Y0049750D01*
X0052667Y0054250D01*
X0049092Y0052375D02*
X0049040Y0052408D01*
X0048989Y0052444D01*
X0048941Y0052483D01*
X0048896Y0052525D01*
X0048853Y0052570D01*
X0048813Y0052618D01*
X0048776Y0052667D01*
X0048742Y0052719D01*
X0048711Y0052773D01*
X0048683Y0052829D01*
X0048659Y0052886D01*
X0048639Y0052945D01*
X0048622Y0053004D01*
X0048609Y0053065D01*
X0048600Y0053126D01*
X0048594Y0053188D01*
X0048592Y0053250D01*
X0048594Y0053310D01*
X0048599Y0053371D01*
X0048608Y0053430D01*
X0048621Y0053489D01*
X0048637Y0053548D01*
X0048657Y0053605D01*
X0048680Y0053660D01*
X0048707Y0053715D01*
X0048736Y0053767D01*
X0048769Y0053818D01*
X0048805Y0053867D01*
X0048843Y0053913D01*
X0048885Y0053957D01*
X0048929Y0053999D01*
X0048975Y0054037D01*
X0049024Y0054073D01*
X0049075Y0054106D01*
X0049127Y0054135D01*
X0049182Y0054162D01*
X0049237Y0054185D01*
X0049294Y0054205D01*
X0049353Y0054221D01*
X0049412Y0054234D01*
X0049471Y0054243D01*
X0049532Y0054248D01*
X0049592Y0054250D01*
X0049672Y0054248D01*
X0049753Y0054243D01*
X0049833Y0054234D01*
X0049912Y0054222D01*
X0049991Y0054207D01*
X0050069Y0054188D01*
X0050147Y0054166D01*
X0050223Y0054141D01*
X0050298Y0054112D01*
X0050372Y0054080D01*
X0050444Y0054045D01*
X0050515Y0054007D01*
X0050584Y0053966D01*
X0050652Y0053922D01*
X0050717Y0053875D01*
X0048467Y0050374D02*
X0048530Y0050313D01*
X0048595Y0050255D01*
X0048663Y0050199D01*
X0048734Y0050146D01*
X0048806Y0050097D01*
X0048880Y0050050D01*
X0048956Y0050006D01*
X0049034Y0049966D01*
X0049114Y0049929D01*
X0049195Y0049895D01*
X0049277Y0049865D01*
X0049361Y0049838D01*
X0049446Y0049814D01*
X0049531Y0049794D01*
X0049617Y0049778D01*
X0049704Y0049765D01*
X0049792Y0049756D01*
X0049879Y0049751D01*
X0049967Y0049749D01*
X0049967Y0049750D02*
X0050027Y0049752D01*
X0050088Y0049757D01*
X0050147Y0049766D01*
X0050206Y0049779D01*
X0050265Y0049795D01*
X0050322Y0049815D01*
X0050377Y0049838D01*
X0050432Y0049865D01*
X0050484Y0049894D01*
X0050535Y0049927D01*
X0050584Y0049963D01*
X0050630Y0050001D01*
X0050674Y0050043D01*
X0050716Y0050087D01*
X0050754Y0050133D01*
X0050790Y0050182D01*
X0050823Y0050233D01*
X0050852Y0050285D01*
X0050879Y0050340D01*
X0050902Y0050395D01*
X0050922Y0050452D01*
X0050938Y0050511D01*
X0050951Y0050570D01*
X0050960Y0050629D01*
X0050965Y0050690D01*
X0050967Y0050750D01*
X0050467Y0051625D02*
X0049092Y0052375D01*
X0050468Y0051625D02*
X0050520Y0051592D01*
X0050571Y0051556D01*
X0050619Y0051517D01*
X0050664Y0051475D01*
X0050707Y0051430D01*
X0050747Y0051382D01*
X0050784Y0051333D01*
X0050818Y0051281D01*
X0050849Y0051227D01*
X0050877Y0051171D01*
X0050901Y0051114D01*
X0050921Y0051055D01*
X0050938Y0050996D01*
X0050951Y0050935D01*
X0050960Y0050874D01*
X0050966Y0050812D01*
X0050968Y0050750D01*
X0045667Y0049750D02*
X0045667Y0054250D01*
X0044417Y0054250D02*
X0046917Y0054250D01*
X0042977Y0054250D02*
X0040977Y0054250D01*
X0040977Y0049750D01*
X0042977Y0049750D01*
X0038467Y0051625D02*
X0037092Y0052375D01*
X0037592Y0054250D02*
X0037672Y0054248D01*
X0037753Y0054243D01*
X0037833Y0054234D01*
X0037912Y0054222D01*
X0037991Y0054207D01*
X0038069Y0054188D01*
X0038147Y0054166D01*
X0038223Y0054141D01*
X0038298Y0054112D01*
X0038372Y0054080D01*
X0038444Y0054045D01*
X0038515Y0054007D01*
X0038584Y0053966D01*
X0038652Y0053922D01*
X0038717Y0053875D01*
X0037092Y0052375D02*
X0037040Y0052408D01*
X0036989Y0052444D01*
X0036941Y0052483D01*
X0036896Y0052525D01*
X0036853Y0052570D01*
X0036813Y0052618D01*
X0036776Y0052667D01*
X0036742Y0052719D01*
X0036711Y0052773D01*
X0036683Y0052829D01*
X0036659Y0052886D01*
X0036639Y0052945D01*
X0036622Y0053004D01*
X0036609Y0053065D01*
X0036600Y0053126D01*
X0036594Y0053188D01*
X0036592Y0053250D01*
X0036594Y0053310D01*
X0036599Y0053371D01*
X0036608Y0053430D01*
X0036621Y0053489D01*
X0036637Y0053548D01*
X0036657Y0053605D01*
X0036680Y0053660D01*
X0036707Y0053715D01*
X0036736Y0053767D01*
X0036769Y0053818D01*
X0036805Y0053867D01*
X0036843Y0053913D01*
X0036885Y0053957D01*
X0036929Y0053999D01*
X0036975Y0054037D01*
X0037024Y0054073D01*
X0037075Y0054106D01*
X0037127Y0054135D01*
X0037182Y0054162D01*
X0037237Y0054185D01*
X0037294Y0054205D01*
X0037353Y0054221D01*
X0037412Y0054234D01*
X0037471Y0054243D01*
X0037532Y0054248D01*
X0037592Y0054250D01*
X0036467Y0050374D02*
X0036530Y0050313D01*
X0036595Y0050255D01*
X0036663Y0050199D01*
X0036734Y0050146D01*
X0036806Y0050097D01*
X0036880Y0050050D01*
X0036956Y0050006D01*
X0037034Y0049966D01*
X0037114Y0049929D01*
X0037195Y0049895D01*
X0037277Y0049865D01*
X0037361Y0049838D01*
X0037446Y0049814D01*
X0037531Y0049794D01*
X0037617Y0049778D01*
X0037704Y0049765D01*
X0037792Y0049756D01*
X0037879Y0049751D01*
X0037967Y0049749D01*
X0037967Y0049750D02*
X0038027Y0049752D01*
X0038088Y0049757D01*
X0038147Y0049766D01*
X0038206Y0049779D01*
X0038265Y0049795D01*
X0038322Y0049815D01*
X0038377Y0049838D01*
X0038432Y0049865D01*
X0038484Y0049894D01*
X0038535Y0049927D01*
X0038584Y0049963D01*
X0038630Y0050001D01*
X0038674Y0050043D01*
X0038716Y0050087D01*
X0038754Y0050133D01*
X0038790Y0050182D01*
X0038823Y0050233D01*
X0038852Y0050285D01*
X0038879Y0050340D01*
X0038902Y0050395D01*
X0038922Y0050452D01*
X0038938Y0050511D01*
X0038951Y0050570D01*
X0038960Y0050629D01*
X0038965Y0050690D01*
X0038967Y0050750D01*
X0038968Y0050750D02*
X0038966Y0050812D01*
X0038960Y0050874D01*
X0038951Y0050935D01*
X0038938Y0050996D01*
X0038921Y0051055D01*
X0038901Y0051114D01*
X0038877Y0051171D01*
X0038849Y0051227D01*
X0038818Y0051281D01*
X0038784Y0051333D01*
X0038747Y0051382D01*
X0038707Y0051430D01*
X0038664Y0051475D01*
X0038619Y0051517D01*
X0038571Y0051556D01*
X0038520Y0051592D01*
X0038468Y0051625D01*
X0040977Y0052250D02*
X0042477Y0052250D01*
X0034877Y0054250D02*
X0032877Y0054250D01*
X0032877Y0049750D01*
X0034877Y0049750D01*
X0030750Y0049750D02*
X0029750Y0051750D01*
X0029500Y0051750D02*
X0028250Y0051750D01*
X0029500Y0051750D02*
X0029569Y0051752D01*
X0029638Y0051758D01*
X0029706Y0051767D01*
X0029773Y0051780D01*
X0029840Y0051797D01*
X0029906Y0051818D01*
X0029970Y0051842D01*
X0030033Y0051870D01*
X0030095Y0051901D01*
X0030155Y0051935D01*
X0030212Y0051973D01*
X0030268Y0052014D01*
X0030321Y0052057D01*
X0030372Y0052104D01*
X0030420Y0052153D01*
X0030465Y0052205D01*
X0030507Y0052260D01*
X0030546Y0052316D01*
X0030583Y0052375D01*
X0030615Y0052436D01*
X0030645Y0052498D01*
X0030671Y0052562D01*
X0030693Y0052627D01*
X0030712Y0052693D01*
X0030727Y0052760D01*
X0030738Y0052828D01*
X0030746Y0052897D01*
X0030750Y0052966D01*
X0030750Y0053034D01*
X0030746Y0053103D01*
X0030738Y0053172D01*
X0030727Y0053240D01*
X0030712Y0053307D01*
X0030693Y0053373D01*
X0030671Y0053438D01*
X0030645Y0053502D01*
X0030615Y0053564D01*
X0030583Y0053625D01*
X0030546Y0053684D01*
X0030507Y0053740D01*
X0030465Y0053795D01*
X0030420Y0053847D01*
X0030372Y0053896D01*
X0030321Y0053943D01*
X0030268Y0053986D01*
X0030212Y0054027D01*
X0030155Y0054065D01*
X0030095Y0054099D01*
X0030033Y0054130D01*
X0029970Y0054158D01*
X0029906Y0054182D01*
X0029840Y0054203D01*
X0029773Y0054220D01*
X0029706Y0054233D01*
X0029638Y0054242D01*
X0029569Y0054248D01*
X0029500Y0054250D01*
X0028250Y0054250D01*
X0028250Y0049750D01*
X0032877Y0052250D02*
X0034377Y0052250D01*
D13*
X0035000Y0047000D02*
X0035000Y0046000D01*
X0045000Y0046000D01*
X0045000Y0047000D01*
X0044500Y0024000D02*
X0035000Y0024000D01*
X0035000Y0023000D01*
X0044500Y0023000D02*
X0044500Y0024000D01*
M02*
