M48
;GenerationSoftware,Autodesk,EAGLE,9.3.0*%
;CreationDate,2019-01-24T20:18:11Z*%
FMAT,2
ICI,OFF
METRIC,TZ,000.000
T4C1.000
T3C1.016
T2C2.500
T1C2.540
%
G90
M71
T1
X50800Y22860
X50800Y5080
T2
X5080Y22860
X5080Y5080
T3
X36830Y10160
X34290Y10160
X31750Y10160
X14681Y7899
X14681Y12421
X8179Y7899
X8179Y12421
X38100Y16510
X40640Y16510
X43180Y16510
X45720Y16510
T4
X46990Y24130
X19050Y3810
X21590Y3810
X24130Y3810
X26670Y3810
X29210Y3810
X19050Y24130
X34290Y3810
X36830Y3810
X39370Y3810
X41910Y3810
X44450Y3810
X46990Y3810
X16510Y3810
X13970Y3810
X11430Y3810
X8890Y3810
X44450Y24130
X41910Y24130
X39370Y24130
X36830Y24130
X34290Y24130
X31750Y24130
X29210Y24130
X26670Y24130
X24130Y24130
X21590Y24130
X31750Y3810
M30